<svg id="Layer_1" data-name="Layer 1" xmlns="http://www.w3.org/2000/svg" viewBox="0 0 5000 5000"><defs><style>.cls-1{fill:#c52126;}.cls-2{fill:#d32029;}.cls-3,.cls-7{fill:#fcfafb;}.cls-3{stroke:#fff;stroke-width:44px;}.cls-3,.cls-5,.cls-6{stroke-miterlimit:10;}.cls-4{fill:#3c180a;}.cls-5{fill:#fff;stroke:#fdfefe;stroke-width:0.25px;}.cls-6{fill:none;stroke:#010101;stroke-width:67px;}.cls-8{fill:#f27ea5;}</style></defs><path class="cls-1" d="M2768.79,973a85.18,85.18,0,0,1-8.71,3.44c-103.29,36-200.51,4.78-289.31-23.75a761.78,761.78,0,0,1-91.61-36.31c-3.54-.14-7.09-.3-10.64-.3,63.54,38.55,156.33,97.56,253.4,170.77,106.39,80.37,202.58,166.28,196.37,174.94-5.32,7.47-72.55-54.53-194.89-100.24-136.23-50.8-179.08-21.07-289.6-77.24-95.74-48.71-135.19-107.57-149.67-96.22-18,14.35,41.07,108.77,123.07,282.52,35.17,74.7,151.31,320.61,123.53,337.93-12,7.32-40.34-33.31-126-108.61-101.21-89-108.6-73.35-192.08-146.86-117.61-103.53-145.54-171.81-219.56-171.81-18.92,0-34.58,4.34-78.61,25.7-149.08,72-254.88,159.11-271.57,172.85-143.62,119.38-193,186.75-208.49,175.7-21-14.94,51.72-152.69,71.81-190.78,29.11-55.28,62.21-117,121.9-184.06,71.07-79.93,137.41-119.52,134.75-123.1-2.66-3.74-69,35.7-140.21,91A1285,1285,0,0,0,1362.75,1296c-65,69.77-174.35,117.13-287.82,147.46-312.8,320.31-505.77,760.44-505.77,1246.13,0,209.46,35.9,410.4,102,597A1764,1764,0,0,0,887,3708c253.25,364.68,638.75,628.67,1086.15,720.39a1732.24,1732.24,0,0,0,254.14,32.72q47.86,2.7,96.63,2.69a1739.45,1739.45,0,0,0,358.45-37.05,1705.32,1705.32,0,0,0,280.45-84.41c486.55-192.27,867.47-598.19,1029.85-1103.6a1763.32,1763.32,0,0,0,81.86-431.46q4-58.28,4-117.73C4078.5,1865.16,3522.34,1172.1,2768.79,973ZM1639.85,3002c-7.22,0-7.21-11.2,0-11.2S1647.06,3002,1639.85,3002Zm1421,41.19c-7.22,0-7.2-11.2,0-11.2S3068.07,3043.23,3060.86,3043.23Z"/><path class="cls-2" d="M2176.13,1468C1386.28,1468,746,2115.43,746,2914.07s640.3,1446,1430.15,1446,1430.15-647.41,1430.15-1446S2966,1468,2176.13,1468ZM1639.85,3002c-7.22,0-7.21-11.2,0-11.2S1647.06,3002,1639.85,3002Zm1421,41.19c-7.22,0-7.2-11.2,0-11.2S3068.07,3043.23,3060.86,3043.23Z"/><path class="cls-3" d="M3279.19,851c-106.41,133-161.77,201.72-246.06,234.5a95.62,95.62,0,0,1-9.81,3.87c-116.22,40.52-225.61,5.38-325.53-26.73a856.69,856.69,0,0,1-103.08-40.85c-65.34-30.76-105.41-59-106.24-57.66,0,1.68,36.41,22,94.27,57.32,71.49,43.38,175.9,109.78,285.13,192.15,119.7,90.44,227.94,187.1,221,196.85-6,8.41-81.64-61.35-219.3-112.79-153.29-57.16-201.5-23.71-325.86-86.91-107.74-54.81-152.13-121-168.42-108.27-20.29,16.14,46.21,122.38,138.49,317.89,39.57,84.06,170.25,360.76,139,380.26-13.47,8.24-45.39-37.49-141.82-122.21-113.89-100.2-122.2-82.54-216.13-165.25-132.34-116.5-163.77-193.33-247.06-193.33-21.29,0-38.91,4.88-88.45,28.92-167.76,81-286.79,179-305.58,194.5-161.61,134.32-217.14,210.13-234.6,197.69-23.6-16.81,58.19-171.8,80.81-214.67,32.75-62.2,70-131.63,137.16-207.11,80-89.93,154.62-134.48,151.63-138.52-3-4.2-77.65,40.18-157.78,102.38A1445.5,1445.5,0,0,0,1451,1449c-73.16,78.51-196.19,131.79-323.87,165.92C902,1675.43,662.62,1676.44,658,1652.57c-3.49-17.49,126.19-15.8,310.57-125.07,127.68-75.65,256.37-189.46,512.41-416.24,30.92-27.23,81.46-72.28,157.28-86.23,55.19-10.09,78.14,4.54,88-9.25,30.25-42.36-173.41-201.56-328.86-493.89-68.84-129.28-92.61-217.71-57.86-282.42,19.78-36.82,57.86-64.9,97.09-94,69.67-51.27,107.24-79,137.83-69.93,66.5,19.5,33.25,192.31,100.42,451.53,21.78,84.23,83.3,322.09,193.19,334.7,44.06,5.05,57-30.25,141-42.53,71.66-10.42,110.73,8.41,182.39,20.18,111.55,18.49,108.23-11.6,278-8.58,52.2,1,143,11.1,324.7,31.44,104.58,11.77,106.07,14.79,132,13.78,90.11-3.86,229.77-65.89,272.16-85.4,118.21-54.46,141.49-66.06,148.8-57.15C3360.16,749.17,3310.45,812,3279.19,851Z"/><path class="cls-4" d="M1824.78,2825.74c-140.37-127.89-376.63-103.06-495.45,43.27-165.29,203.58-26.1,547.21,85.33,569.72,58.89,11.89,85.1-70.94,214.49-102.68,129.15-31.68,182.42,31.39,239-7.92C1961.9,3262.92,1984.86,2971.58,1824.78,2825.74Zm-295.3,65.76c-10.54-2-7.34-19.15,3.19-17.2S1540,2893.45,1529.48,2891.5Z"/><path class="cls-4" d="M3492.37,2825.35c-121.51-159.49-366.17-183.87-511.59-60-202.3,172.25-118,550.85-8.37,597.13,58,24.46,98.49-54.25,235.51-59.34,136.77-5.08,180.46,70.23,244.6,42.13C3558.89,3298.62,3631,3007.25,3492.37,2825.35Zm-315.7,205.44c-11.14,0-11.12-18,0-18S3187.79,3030.79,3176.67,3030.79Z"/><path class="cls-5" d="M3141.57,2804.12c58.7,87.52-1.19,172-116.09,173.17-55.78.58-96.94-57.31-96.05-110.94.81-49.29,41.91-62.07,86.52-89.36C3058.49,2751,3114.25,2763.39,3141.57,2804.12Z"/><path class="cls-5" d="M1477.08,2860.85c-22.54-40-68.54-52.15-103.64-26.62-36.81,26.78-70.72,39.32-71.39,87.69-.73,52.62,33.23,109.43,79.26,108.86C1476.1,3029.61,1525.51,2946.73,1477.08,2860.85Zm-30.21,76.71c-13.36,0-13.33-23.44,0-23.44S1460.2,2937.56,1446.87,2937.56Z"/><circle class="cls-5" cx="1785.12" cy="3192.97" r="89.26"/><circle class="cls-5" cx="3406.04" cy="3224.34" r="90.6"/><path class="cls-6" d="M2180.54,3655.38c-8.14,142.42,106.29,262.58,243.33,261.18,135.24-1.38,246.49-120.66,238.42-261.18"/><path class="cls-7" d="M769.26,2242.27c-39.23,140.59-45.58,251.85-49.89,336.1-11.77,229.75,20.75,434.3,30,433.76,6-.37-2.88-88.91,4.86-197.7,23.7-333.17,184.44-584.23,221.82-640.31,175-262.56,371.67-342.19,336.5-458.24-13.64-45-57.19-79.2-97.91-86.46-118.61-21.17-240.95,181.31-308.46,293C876.34,1971.76,813.63,2083.29,769.26,2242.27Z"/><ellipse class="cls-8" cx="1524.94" cy="3564.65" rx="222.89" ry="89.29"/><ellipse class="cls-8" cx="3246.84" cy="3523.91" rx="222.89" ry="89.29"/></svg>