<svg id="Layer_1" data-name="Layer 1" xmlns="http://www.w3.org/2000/svg" viewBox="0 0 5000 5000"><defs><style>.cls-1{fill:#c52126;}.cls-2{fill:#d32029;}.cls-3,.cls-7{fill:#fcfafb;}.cls-3{stroke:#fff;stroke-width:44px;}.cls-3,.cls-5,.cls-6{stroke-miterlimit:10;}.cls-4{fill:#070404;}.cls-5{fill:#fff;stroke:#fdfefe;stroke-width:0.25px;}.cls-6{fill:none;stroke:#010101;stroke-width:67px;}.cls-8{fill:#f27ea5;}</style></defs><path class="cls-1" d="M2718.93,848.67a80.58,80.58,0,0,1-7.78,3.07c-92.19,32.14-179,4.26-258.24-21.21a678.15,678.15,0,0,1-81.77-32.4c-3.17-.13-6.33-.27-9.5-.27,56.71,34.41,139.54,87.08,226.19,152.43,95,71.74,180.82,148.42,175.28,156.16-4.75,6.66-64.76-48.68-174-89.48-121.6-45.34-159.85-18.81-258.5-69-85.47-43.48-120.68-96-133.6-85.88-16.1,12.8,36.66,97.08,109.86,252.18C2338.3,1181,2442,1400.5,2417.17,1416c-10.69,6.54-36-29.73-112.5-97-90.35-79.48-96.94-65.47-171.46-131.09-105-92.41-129.91-153.35-196-153.35-16.88,0-30.86,3.86-70.16,22.94-133.08,64.27-227.51,142-242.41,154.29-128.2,106.55-172.25,166.69-186.1,156.83-18.73-13.34,46.16-136.3,64.1-170.3,26-49.34,55.52-104.42,108.81-164.29,63.44-71.35,122.65-106.69,120.28-109.89s-61.59,31.87-125.16,81.21A1145.7,1145.7,0,0,0,1463.87,1137c-58,62.27-155.63,104.54-256.92,131.62C927.74,1554.52,755.5,1947.39,755.5,2380.93c0,187,32,366.32,91,532.88A1574.38,1574.38,0,0,0,1039.19,3290c226.06,325.52,570.16,561.16,969.52,643a1546.64,1546.64,0,0,0,226.85,29.2q42.72,2.4,86.25,2.41a1552.27,1552.27,0,0,0,320-33.08,1522.14,1522.14,0,0,0,250.33-75.34c434.31-171.63,774.32-534,919.27-985.1A1574.18,1574.18,0,0,0,3884.43,2486q3.57-52,3.57-105.08C3888,1645.07,3391.56,1026.43,2718.93,848.67ZM1711.21,2659.87c-6.44,0-6.43-10,0-10S1717.65,2659.87,1711.21,2659.87Zm1268.43,36.77c-6.45,0-6.44-10,0-10S2986.07,2696.64,2979.64,2696.64Z"/><path class="cls-2" d="M2189.91,1290.57c-705,0-1276.58,577.9-1276.58,1290.77s571.54,1290.77,1276.58,1290.77,1276.57-577.9,1276.57-1290.77S2894.94,1290.57,2189.91,1290.57Zm-478.7,1369.3c-6.44,0-6.43-10,0-10S1717.65,2659.87,1711.21,2659.87Zm1268.43,36.77c-6.45,0-6.44-10,0-10S2986.07,2696.64,2979.64,2696.64Z"/><path class="cls-3" d="M2914.13,662.64c-84.42,105.48-128.33,160-195.2,186a80.58,80.58,0,0,1-7.78,3.07c-92.19,32.14-179,4.26-258.24-21.21a678.15,678.15,0,0,1-81.77-32.4c-51.84-24.41-83.62-46.81-84.28-45.74,0,1.33,28.89,17.47,74.78,45.47,56.71,34.41,139.54,87.08,226.19,152.43,95,71.74,180.82,148.42,175.28,156.16-4.75,6.66-64.76-48.68-174-89.48-121.6-45.34-159.85-18.81-258.5-69-85.47-43.48-120.68-96-133.6-85.88-16.1,12.8,36.66,97.08,109.86,252.18C2338.3,1181,2442,1400.5,2417.17,1416c-10.69,6.54-36-29.73-112.5-97-90.35-79.48-96.94-65.47-171.46-131.09-105-92.41-129.91-153.35-196-153.35-16.88,0-30.86,3.86-70.16,22.94-133.08,64.27-227.51,142-242.41,154.29-128.2,106.55-172.25,166.69-186.1,156.83-18.73-13.34,46.16-136.3,64.1-170.3,26-49.34,55.52-104.42,108.81-164.29,63.44-71.35,122.65-106.69,120.28-109.89s-61.59,31.87-125.16,81.21A1145.7,1145.7,0,0,0,1463.87,1137c-58,62.27-155.63,104.54-256.92,131.62-178.57,48-368.5,48.81-372.19,29.87-2.77-13.87,100.11-12.54,246.37-99.22,101.29-60,203.37-150.29,406.48-330.19,24.53-21.6,64.63-57.34,124.77-68.41,43.79-8,62,3.6,69.77-7.33,24-33.61-137.56-159.9-260.88-391.8-54.6-102.55-73.46-172.7-45.89-224,15.69-29.2,45.89-51.47,77-74.54,55.26-40.68,85.07-62.68,109.33-55.48,52.76,15.47,26.38,152.56,79.67,358.19,17.27,66.81,66.07,255.51,153.25,265.51,34.95,4,45.24-24,111.84-33.73,56.85-8.27,87.84,6.66,144.69,16,88.49,14.67,85.86-9.2,220.51-6.8,41.42.8,113.43,8.8,257.58,24.94,83,9.33,84.15,11.73,104.72,10.93,71.49-3.07,182.27-52.28,215.91-67.75,93.77-43.2,112.23-52.4,118-45.34C2978.35,581.83,2938.92,631.7,2914.13,662.64Z"/><path class="cls-4" d="M1876.29,2502.5c-125.3-114.16-336.19-92-442.25,38.63-147.54,181.71-23.29,488.44,76.17,508.53,52.56,10.62,76-63.32,191.45-91.64,115.29-28.28,162.84,28,213.31-7.08C1998.69,2892.73,2019.18,2632.68,1876.29,2502.5Zm-263.59,58.7c-9.41-1.75-6.55-17.09,2.84-15.35S1622.09,2562.94,1612.7,2561.2Z"/><path class="cls-4" d="M3364.81,2502.15C3256.34,2359.78,3038,2338,2908.15,2448.56c-180.57,153.75-105.36,491.7-7.47,533,51.74,21.83,87.92-48.42,210.22-53,122.09-4.54,161.09,62.68,218.33,37.6C3424.18,2924.6,3488.51,2664.52,3364.81,2502.15ZM3083,2685.53c-9.94,0-9.93-16.07,0-16.07S3092.94,2685.53,3083,2685.53Z"/><path class="cls-5" d="M3051.68,2483.2c52.39,78.12-1.07,153.51-103.62,154.58-49.8.52-86.53-51.16-85.74-99,.72-44,37.41-55.41,77.23-79.76C2977.52,2435.76,3027.29,2446.84,3051.68,2483.2Z"/><path class="cls-5" d="M1565.93,2533.84c-20.12-35.68-61.19-46.55-92.51-23.76-32.86,23.9-63.13,35.1-63.73,78.27-.65,47,29.66,97.68,70.74,97.17C1565.05,2684.48,1609.16,2610.5,1565.93,2533.84Zm-27,68.47c-11.92,0-11.9-20.92,0-20.92S1550.86,2602.31,1539,2602.31Z"/><circle class="cls-5" cx="1840.88" cy="2830.3" r="79.68"/><circle class="cls-5" cx="3287.75" cy="2858.29" r="80.87"/><path class="cls-6" d="M2193.85,3243.05c-7.28,127.13,94.87,234.38,217.2,233.14,120.71-1.24,220-107.71,212.82-233.14"/><path class="cls-7" d="M934.12,1981.68c-35,125.5-40.69,224.81-44.54,300-10.5,205.08,18.52,387.67,26.74,387.18,5.39-.32-2.58-79.36,4.33-176.46,21.15-297.4,164.64-521.5,198-571.55,156.18-234.37,331.76-305.45,300.37-409-12.17-40.16-51-70.7-87.4-77.18-105.87-18.9-215.08,161.84-275.34,261.58C1029.69,1740.22,973.72,1839.77,934.12,1981.68Z"/><ellipse class="cls-8" cx="1608.64" cy="3162.06" rx="198.96" ry="79.7"/><ellipse class="cls-8" cx="3145.64" cy="3125.7" rx="198.96" ry="79.7"/></svg>