<svg id="Layer_1" data-name="Layer 1" xmlns="http://www.w3.org/2000/svg" viewBox="0 0 5000 5000"><defs><style>.cls-1{fill:#c52126;}.cls-2{fill:#d32029;}.cls-3,.cls-7{fill:#fcfafb;}.cls-3{stroke:#fff;stroke-width:44px;}.cls-3,.cls-5,.cls-6{stroke-miterlimit:10;}.cls-4{fill:#3c180a;}.cls-5{fill:#fff;stroke:#fdfefe;stroke-width:0.25px;}.cls-6{fill:none;stroke:#010101;stroke-width:67px;}.cls-8{fill:#f27ea5;}</style></defs><path class="cls-1" d="M3002.31,1037.28a96,96,0,0,1-9.83,3.87c-116.55,40.64-226.26,5.4-326.47-26.8a857,857,0,0,1-103.38-41c-4-.16-8-.34-12-.34,71.69,43.5,176.4,110.1,285.95,192.71,120.05,90.69,228.59,187.63,221.59,197.41-6,8.43-81.87-61.53-219.92-113.12-153.74-57.32-202.09-23.77-326.81-87.16-108-55-152.56-121.39-168.9-108.57-20.35,16.18,46.35,122.73,138.89,318.8,39.68,84.3,170.74,361.8,139.39,381.35-13.5,8.26-45.52-37.59-142.22-122.56-114.22-100.48-122.56-82.78-216.76-165.73-132.72-116.83-164.24-193.88-247.77-193.88-21.35,0-39,4.89-88.71,29-168.23,81.26-287.62,179.55-306.46,195.06-162.07,134.71-217.76,210.74-235.27,198.26-23.67-16.85,58.36-172.3,81-215.29,32.85-62.38,70.2-132,137.56-207.7,80.2-90.2,155.06-134.87,152.06-138.92-3-4.21-77.87,40.29-158.23,102.67a1449.51,1449.51,0,0,0-180.41,166.4c-73.37,78.73-196.75,132.17-324.8,166.4-353,361.46-570.74,858.13-570.74,1406.21,0,236.37,40.52,463.12,115,673.69a1990.34,1990.34,0,0,0,243.6,475.59c285.78,411.53,720.8,709.43,1225.68,812.94a1954.19,1954.19,0,0,0,286.79,36.92q54,3,109,3a1962.73,1962.73,0,0,0,404.5-41.81,1923.8,1923.8,0,0,0,316.47-95.26c549.06-217,978.91-675,1162.15-1245.37a1989.76,1989.76,0,0,0,92.37-486.89q4.5-65.74,4.51-132.85C4480.27,2044.1,3852.67,1262,3002.31,1037.28ZM1728.34,3327c-8.15,0-8.13-12.64,0-12.64S1736.48,3327,1728.34,3327Zm1603.57,46.48c-8.15,0-8.14-12.64,0-12.64S3340,3373.51,3331.91,3373.51Z"/><path class="cls-2" d="M2333.51,1595.94c-891.31,0-1613.86,730.58-1613.86,1631.81S1442.2,4859.56,2333.51,4859.56,3947.38,4129,3947.38,3227.75,3224.83,1595.94,2333.51,1595.94ZM1728.34,3327c-8.15,0-8.13-12.64,0-12.64S1736.48,3327,1728.34,3327Zm1603.57,46.48c-8.15,0-8.14-12.64,0-12.64S3340,3373.51,3331.91,3373.51Z"/><path class="cls-3" d="M3578.28,899.7c-120.08,150-182.55,227.64-277.67,264.63a110.11,110.11,0,0,1-11.07,4.36c-131.15,45.72-254.6,6.07-367.35-30.16a963.73,963.73,0,0,1-116.32-46.1c-73.74-34.71-118.95-66.58-119.89-65.06,0,1.89,41.09,24.85,106.38,64.68,80.67,49,198.49,123.88,321.76,216.84,135.08,102,257.22,211.13,249.34,222.14-6.76,9.48-92.12-69.24-247.46-127.29-173-64.5-227.4-26.75-367.73-98.08-121.58-61.85-171.67-136.59-190.06-122.17-22.89,18.22,52.16,138.1,156.28,358.73,44.66,94.85,192.12,407.1,156.85,429.1-15.19,9.3-51.22-42.3-160-137.91-128.52-113.06-137.9-93.14-243.9-186.48-149.35-131.46-184.81-218.16-278.8-218.16-24,0-43.9,5.51-99.81,32.64-189.31,91.43-323.64,202-344.84,219.48-182.36,151.57-245,237.13-264.73,223.09-26.64-19,65.66-193.88,91.18-242.25,37-70.19,79-148.54,154.79-233.71,90.24-101.49,174.48-151.76,171.1-156.32-3.38-4.74-87.62,45.34-178,115.53a1631.33,1631.33,0,0,0-203,187.24c-82.55,88.59-221.38,148.72-365.47,187.24-254,68.29-524.2,69.43-529.45,42.48-3.94-19.72,142.4-17.83,350.46-141.13,144.09-85.37,289.31-213.8,578.24-469.7,34.89-30.73,91.93-81.58,177.48-97.32,62.29-11.38,88.18,5.12,99.25-10.43,34.14-47.81-195.69-227.46-371.1-557.35-77.68-145.88-104.51-245.66-65.29-318.7,22.32-41.54,65.29-73.22,109.56-106,78.61-57.86,121-89.16,155.53-78.92,75,22,37.53,217,113.32,509.54,24.58,95,94,363.47,218,377.7,49.72,5.69,64.36-34.15,159.1-48,80.86-11.77,125,9.48,205.82,22.76,125.89,20.86,122.14-13.09,313.69-9.68,58.91,1.14,161.35,12.52,366.42,35.48,118,13.28,119.69,16.69,149,15.55,101.69-4.36,259.29-74.36,307.13-96.37,133.39-61.46,159.66-74.55,167.92-64.49C3669.65,784.74,3613.55,855.68,3578.28,899.7Z"/><path class="cls-4" d="M1937,3128.07c-158.4-144.31-425-116.29-559.09,48.84-186.53,229.72-29.45,617.5,96.29,642.9,66.45,13.42,96-80,242-115.86,145.75-35.75,205.87,35.42,269.68-8.95C2091.77,3621.42,2117.67,3292.66,1937,3128.07Zm-333.23,74.21c-11.9-2.2-8.28-21.6,3.59-19.4S1615.67,3204.48,1603.8,3202.28Z"/><path class="cls-4" d="M3818.85,3127.64c-137.13-180-413.22-207.49-577.32-67.76-228.28,194.39-133.2,621.62-9.44,673.85,65.41,27.6,111.14-61.22,265.76-67,154.35-5.74,203.65,79.25,276,47.54C3893.91,3661.71,3975.23,3332.91,3818.85,3127.64Zm-356.26,231.82c-12.57,0-12.55-20.31,0-20.31S3475.14,3359.46,3462.59,3359.46Z"/><path class="cls-5" d="M3423,3103.68c66.24,98.76-1.35,194.08-131,195.42-62.95.66-109.39-64.68-108.4-125.19.92-55.62,47.3-70,97.64-100.84C3329.23,3043.71,3392.15,3057.71,3423,3103.68Z"/><path class="cls-5" d="M1544.67,3167.7c-25.44-45.11-77.35-58.85-117-30-41.53,30.21-79.8,44.37-80.56,99-.82,59.38,37.5,123.49,89.44,122.85C1543.56,3358.14,1599.32,3264.61,1544.67,3167.7Zm-34.1,86.56c-15.07,0-15-26.45,0-26.45S1525.62,3254.26,1510.57,3254.26Z"/><circle class="cls-5" cx="1892.27" cy="3542.49" r="100.73"/><circle class="cls-5" cx="3721.42" cy="3577.88" r="102.23"/><path class="cls-6" d="M2338.5,4064.3c-9.2,160.71,119.94,296.3,274.58,294.73,152.62-1.56,278.16-136.16,269.05-294.73"/><path class="cls-7" d="M745.92,2469.65c-44.27,158.65-51.44,284.21-56.31,379.28C676.34,3108.2,713,3339,723.42,3338.41c6.82-.41-3.26-100.33,5.47-223.09,26.75-376,208.15-659.28,250.32-722.57,197.45-296.29,419.43-386.15,379.73-517.11-15.39-50.77-64.53-89.37-110.48-97.57-133.85-23.89-271.91,204.61-348.1,330.69C866.75,2164.39,796,2290.25,745.92,2469.65Z"/><ellipse class="cls-8" cx="1598.67" cy="3961.91" rx="251.53" ry="100.76"/><ellipse class="cls-8" cx="3541.77" cy="3915.94" rx="251.53" ry="100.76"/></svg>